<?xml version="1.0" encoding="UTF-8" standalone="no"?>
<!-- Created with Inkscape (http://www.inkscape.org/) -->

<svg
   xmlns:dc="http://purl.org/dc/elements/1.1/"
   xmlns:cc="http://creativecommons.org/ns#"
   xmlns:rdf="http://www.w3.org/1999/02/22-rdf-syntax-ns#"
   xmlns:svg="http://www.w3.org/2000/svg"
   xmlns="http://www.w3.org/2000/svg"
   xmlns:xlink="http://www.w3.org/1999/xlink"
   xmlns:sodipodi="http://sodipodi.sourceforge.net/DTD/sodipodi-0.dtd"
   xmlns:inkscape="http://www.inkscape.org/namespaces/inkscape"
   width="1920mm"
   height="1080mm"
   viewBox="0 0 1920 1080"
   version="1.1"
   id="svg8"
   sodipodi:docname="bggroup2.svg"
   inkscape:version="0.92.4 (5da689c313, 2019-01-14)">
  <defs
     id="defs2">
    <linearGradient
       inkscape:collect="always"
       id="linearGradient9322">
      <stop
         style="stop-color:#1a0707;stop-opacity:1;"
         offset="0"
         id="stop9318" />
      <stop
         style="stop-color:#1a0707;stop-opacity:0.45728642"
         offset="1"
         id="stop9320" />
    </linearGradient>
    <linearGradient
       inkscape:collect="always"
       id="linearGradient9314">
      <stop
         style="stop-color:#191912;stop-opacity:1;"
         offset="0"
         id="stop9310" />
      <stop
         style="stop-color:#191912;stop-opacity:0.60301507"
         offset="1"
         id="stop9312" />
    </linearGradient>
    <linearGradient
       inkscape:collect="always"
       id="linearGradient9306">
      <stop
         style="stop-color:#0c181a;stop-opacity:1;"
         offset="0"
         id="stop9302" />
      <stop
         style="stop-color:#0c181a;stop-opacity:0.7638191"
         offset="1"
         id="stop9304" />
    </linearGradient>
    <linearGradient
       inkscape:collect="always"
       id="linearGradient9282">
      <stop
         id="stop9280"
         offset="0"
         style="stop-color:#ffad16;stop-opacity:0.71356785" />
      <stop
         id="stop9278"
         offset="1"
         style="stop-color:#090605;stop-opacity:1" />
    </linearGradient>
    <radialGradient
       inkscape:collect="always"
       xlink:href="#linearGradient9282"
       id="radialGradient9286"
       cx="333.59412"
       cy="1385.5652"
       fx="333.59412"
       fy="1385.5652"
       r="999.75507"
       gradientTransform="matrix(1.0692682,-1.3039316,1.4789345,1.212776,-1174.3074,520.3474)"
       gradientUnits="userSpaceOnUse" />
    <linearGradient
       inkscape:collect="always"
       xlink:href="#linearGradient9306"
       id="linearGradient9308"
       x1="485.98285"
       y1="823.30688"
       x2="482.86459"
       y2="1035.3516"
       gradientUnits="userSpaceOnUse" />
    <linearGradient
       inkscape:collect="always"
       xlink:href="#linearGradient9314"
       id="linearGradient9316"
       x1="760.67706"
       y1="898.09894"
       x2="759.02344"
       y2="1061.8098"
       gradientUnits="userSpaceOnUse" />
    <linearGradient
       inkscape:collect="always"
       xlink:href="#linearGradient9322"
       id="linearGradient9324"
       x1="1217.0833"
       y1="537.60413"
       x2="1208.8151"
       y2="1061.8099"
       gradientUnits="userSpaceOnUse" />
  </defs>
  <sodipodi:namedview
     id="base"
     pagecolor="#ffffff"
     bordercolor="#666666"
     borderopacity="1.0"
     inkscape:pageopacity="0.0"
     inkscape:pageshadow="2"
     inkscape:zoom="0.056568542"
     inkscape:cx="1102.535"
     inkscape:cy="-413.4519"
     inkscape:document-units="mm"
     inkscape:current-layer="layer9"
     showgrid="false"
     borderlayer="true"
     inkscape:showpageshadow="false"
     inkscape:pagecheckerboard="false"
     inkscape:window-width="1920"
     inkscape:window-height="1017"
     inkscape:window-x="-8"
     inkscape:window-y="-8"
     inkscape:window-maximized="1" />
  <metadata
     id="metadata5">
    <rdf:RDF>
      <cc:Work
         rdf:about="">
        <dc:format>image/svg+xml</dc:format>
        <dc:type
           rdf:resource="http://purl.org/dc/dcmitype/StillImage" />
        <dc:title></dc:title>
      </cc:Work>
    </rdf:RDF>
  </metadata>
  <g
     inkscape:groupmode="layer"
     id="layer2"
     inkscape:label="Sunset" />
  <g
     inkscape:groupmode="layer"
     id="layer11"
     inkscape:label="Sun" />
  <g
     inkscape:groupmode="layer"
     id="layer10"
     inkscape:label="Fifth Mountain" />
  <g
     inkscape:groupmode="layer"
     id="layer8"
     inkscape:label="Fourth Mountain" />
  <g
     inkscape:groupmode="layer"
     id="layer6"
     inkscape:label="Third Mountain" />
  <g
     inkscape:groupmode="layer"
     id="layer4"
     inkscape:label="Second Mountain" />
  <g
     inkscape:groupmode="layer"
     id="layer3"
     inkscape:label="First Mountain" />
  <g
     inkscape:groupmode="layer"
     id="layer9"
     inkscape:label="Foreground">
    <g
       id="g9358">
      <rect
         y="-40.193439"
         x="-37.417732"
         height="1157.6111"
         width="1999.5101"
         id="rect9252"
         style="opacity:1;fill:url(#radialGradient9286);fill-opacity:1;stroke:none;stroke-width:0.26458332;stroke-opacity:0" />
      <path
         sodipodi:nodetypes="cccccscscccccccsccsccccsccsscccccscccccccccccccsscsccscccscsccsccccccccccccccccccccccccccccccssccscccsccccscscccccscccccccscscccsssccccccssssccsscccssscsssssssssscsssccccccccc"
         inkscape:connector-curvature="0"
         id="path8175"
         d="m -11.811756,937.31394 12.28422613,-2.83483 4.91369047,-0.37796 7.3705354,0.75594 5.480655,-1.13392 c 0,0 6.236607,0.37798 6.992558,0.37798 0.755955,0 4.724704,-0.75596 7.559524,-0.94496 2.834823,-0.18896 5.669643,0.56698 8.693452,0.56698 3.023812,0 6.425597,-0.18899 10.016371,-0.75594 3.590774,-0.56698 3.023809,-0.94496 5.858629,-1.13395 2.834822,-0.18897 1.889881,0.37798 6.047621,0.75597 4.157736,0.37798 4.724701,0.56694 7.937499,0.37798 3.212796,-0.18899 4.157737,-0.37798 8.693452,-2.26788 4.535715,-1.88986 5.858632,-3.02379 10.016368,-3.96875 4.157739,-0.94493 4.913691,-0.94493 8.504463,-1.70087 3.590782,-0.75597 3.968752,-0.18899 8.126492,-1.88989 4.15774,-1.7009 7.37054,-4.15774 8.50446,-4.34674 1.13393,-0.18899 5.10268,0.189 7.18155,-0.18899 2.07887,-0.37796 3.96875,-0.75594 5.29167,-2.07886 1.32291,-1.32291 1.70089,-6.99256 2.07887,-8.12649 0.37797,-1.13392 1.70089,-2.26785 1.70089,-2.26785 0,0 0,-0.37798 0.56696,-1.7009 0.56697,-1.32291 0.75596,-1.7009 1.51191,-2.07886 0.75595,-0.37798 1.32292,-0.75596 2.45684,-2.64583 1.13393,-1.88989 0.18899,-1.88989 1.88989,-3.59079 1.70089,-1.70088 3.96875,-2.64584 5.29166,-2.8348 1.32292,-0.18899 5.48066,-0.75597 7.18155,-0.75597 1.70089,0 1.70089,0.37799 3.96875,0.37799 2.26786,0 3.2128,-0.56698 4.7247,-1.32292 1.51191,-0.75597 5.29167,-2.83483 5.29167,-2.83483 0,0 5.66964,-5.66965 9.26042,-6.80357 3.59077,-1.13393 3.0238,-1.13393 6.04761,-1.7009 3.02381,-0.56695 3.2128,-0.18897 6.80358,-2.26785 3.59077,-2.07886 4.91369,-3.59077 9.07142,-5.29167 4.15774,-1.7009 5.66965,-1.88986 7.74852,-3.21278 2.07886,-1.32292 2.07886,-1.7009 5.48065,-3.77978 3.40179,-2.07886 5.29167,-2.64584 8.12649,-2.8348 2.83482,-0.189 8.87885,-5.21891 9.8143,-5.61981 0.93544,-0.40092 1.20271,-0.93546 3.4745,-1.73725 2.27179,-0.80182 4.81085,-1.47 7.61718,-2.80633 2.80633,-1.33636 5.21176,-2.13818 7.48355,-2.27179 2.27179,-0.13364 1.60361,0.53454 6.68174,-0.53454 5.07812,-1.0691 4.27631,-1.47 8.41899,-1.73725 4.14269,-0.26729 3.07358,-0.40093 7.48355,-0.13364 4.40995,0.26725 2.80633,-0.13365 4.81084,0.26725 2.00451,0.40092 1.46998,0.80182 2.80633,0.40092 1.33636,-0.40092 0,-0.66817 2.40544,-0.80182 2.40543,-0.13364 2.27179,-0.13364 4.14266,-0.13364 1.87089,0 2.40543,-0.13361 5.3454,-0.66815 2.93997,-0.53454 2.40543,-0.26728 6.54809,-1.0691 4.14269,-0.80179 3.74179,-1.20269 6.41448,-2.00451 2.67269,-0.80182 4.94448,-0.93544 6.41448,-1.33636 1.46997,-0.40089 1.73723,-0.80179 2.80633,-1.20269 1.06908,-0.40092 2.40541,-0.80182 4.14266,-0.80182 1.73725,0 6.1472,-0.40089 7.48356,0 1.33635,0.4009 1.60361,1.46997 5.47901,1.60362 3.87541,0.13364 3.60815,-0.13365 5.07812,0.40089 1.47,0.53454 18.57524,9.35445 20.71339,9.35445 2.13817,0 4.00904,-0.53454 5.61266,0.4009 1.60364,0.93543 1.73725,1.46997 4.67722,2.27179 2.93997,0.80182 2.13815,0.66818 5.61266,1.33636 3.47451,0.66815 2.53907,0.80179 5.07812,0.66815 2.53908,-0.13362 3.47451,-1.33633 4.67723,-1.33633 1.20271,0 2.13815,0.13364 3.07358,0.80179 0.93546,0.66818 1.60364,2.13818 3.47451,2.67272 1.87089,0.53453 2.27179,0.13361 2.27179,0.13361 0,0 0.61389,-0.84214 0.85011,-1.12562 0.23624,-0.28347 0.14173,-1.46465 0.18899,-1.93712 0.0473,-0.47249 0.0473,-1.7009 -0.0945,-1.98437 -0.14177,-0.2835 -0.23625,-0.2835 -0.42524,-0.51972 -0.18899,-0.23625 -0.75594,-0.42524 -0.14174,-0.8032 0.6142,-0.37798 1.65365,-0.75596 2.07886,-1.37017 0.42524,-0.6142 0.66146,-1.03944 0.80322,-1.60639 0.14174,-0.56698 -0.42524,-0.56698 0.42521,-1.32292 0.85045,-0.75596 1.32292,-0.94496 1.60639,-1.22843 0.2835,-0.28348 0.61423,-0.51972 0.66146,-0.89771 0.0473,-0.37795 0.4617,-4.71048 2.19895,-6.71501 1.73726,-2.00451 1.20272,-2.2718 3.07359,-2.93997 1.87089,-0.66816 0.80182,-0.26726 2.13815,-1.60362 1.33636,-1.33633 0.80182,-1.33633 2.13818,-1.87089 1.33633,-0.53454 0.93543,-0.93544 2.53904,-0.53454 1.60362,0.40092 0.4009,-0.13362 2.67269,1.33636 2.2718,1.46997 4.81087,3.60815 6.94902,3.4745 2.13815,-0.13364 2.00451,-0.40089 2.80633,-1.60361 0.80182,-1.20271 1.20272,-1.73725 2.13815,-2.00453 0.93546,-0.26726 0.80182,-0.53454 1.8709,0 1.06907,0.53453 0.66817,0.53453 2.40543,0.93546 1.73725,0.40089 1.73725,0.26725 2.93994,0.40089 1.20272,0.13364 -0.13361,0 1.8709,0.4009 2.00453,0.40092 1.53664,0.47146 1.99731,0.37698 0.46064,-0.0945 0.60238,-2.11431 0.60238,-2.11431 0,0 -0.12745,-0.20037 0.47392,-0.53446 0.60134,-0.33409 1.06907,-0.23387 1.5702,-0.60135 0.50114,-0.3675 0.56795,-0.43431 1.20271,-0.63476 0.63476,-0.20045 0.93544,-0.26728 1.73726,-0.26728 0.80182,0 2.43882,0.33409 2.90655,0.4009 0.46773,0.0668 2.43882,-0.10023 2.43882,-0.10023 0,0 0.23387,-0.0668 0.73502,-0.4009 0.50112,-0.33408 0.63476,-0.46773 0.83521,-0.66817 0.20044,-0.20045 -0.0334,-0.26726 0.40089,-0.23387 0.43432,0.0334 0.46773,-0.0668 0.7016,0.20048 0.23386,0.26725 0.13361,0.4677 0.53454,0.4677 0.40089,0 0.53453,-0.0668 0.90201,-0.26726 0.36751,-0.20044 0.20048,-0.30067 0.76841,-0.33409 0.56795,-0.0334 0.93546,0.13365 1.20271,-0.13364 0.26728,-0.26725 0.33409,-0.40089 0.7016,-0.73498 0.36748,-0.33409 0.33409,-0.50112 0.73498,-0.50112 0.4009,0 0.50113,0 1.03566,0.13361 0.53454,0.13364 0.60733,0.51234 1.36327,0.70133 0.75594,0.18899 1.51191,0.33073 2.36236,0.28348 0.85045,-0.0472 0.66146,0.14173 2.36233,-0.70869 1.7009,-0.85045 1.74815,-0.75597 4.205,-1.74815 2.45684,-0.99219 3.68527,-1.51191 4.86645,-1.88987 1.18115,-0.37798 0.70869,-0.33073 2.78757,-0.75597 2.07886,-0.42521 3.07105,-0.70871 4.44122,-0.70871 1.37017,0 2.50409,0.61423 3.21278,0.47249 0.70871,-0.14176 0.8977,-1.08669 1.0867,-1.18118 0.18899,-0.0945 0.23622,-0.18899 0.94493,-0.2835 0.70871,-0.0945 0.8977,0.18899 1.41743,0.23625 0.51969,0.0472 -0.0945,-0.14174 1.08667,0.0945 1.18117,0.23625 0.8977,0.33073 1.55916,0.23625 0.66146,-0.0945 0.51969,-0.0473 1.46465,-0.18899 0.94494,-0.14174 0.42521,-0.0473 1.27566,0 0.85045,0.0473 1.46466,-0.75595 1.46466,-0.75595 0,0 0.47247,-0.51972 0.75597,-0.61423 0.28347,-0.0945 1.4174,-0.14173 2.22059,-0.18896 0.8032,-0.0473 2.03163,-0.0473 2.97656,0.0472 0.94494,0.0945 2.40962,0.18899 3.35455,0.47246 0.94493,0.2835 2.97656,1.0867 5.24441,1.0867 h 6.42559 c 3.96875,0 3.02382,0.18899 8.12649,0 5.10268,-0.18899 6.80358,0 9.07143,0.37798 2.26788,0.37796 3.77976,1.13393 6.42559,1.51189 2.64583,0.37798 1.7009,-0.18897 7.18156,0.37798 5.48066,0.56698 3.21281,0 7.55952,0.94493 4.34673,0.94496 8.69346,1.88989 11.1503,2.26788 2.45685,0.37796 0.56695,0 5.10268,0.75594 4.53573,0.75597 23.64208,4.16825 31.66017,4.16825 8.0181,0 14.43255,1.60361 24.58879,2.13815 10.15624,0.53453 16.57072,-2.13815 26.19243,0 9.6217,2.13815 15.50162,1.06907 34.21049,8.01809 18.70887,6.94901 24.05425,5.87991 33.67595,8.55263 9.62171,2.67269 13.36347,4.2763 26.19243,7.48353 12.82893,3.20725 12.82893,2.67271 22.98517,4.27632 10.15625,1.60362 6.94899,2.13815 18.17434,2.13815 11.22532,0 12.82893,-0.53453 18.17431,1.60362 5.3454,2.13815 40.90012,12.19157 57.61164,17.13212 12.17583,-1.10709 25.50132,-5.74562 50.62465,0.13429 26.72697,-2.67267 52.68695,-0.35006 71.06683,4.05491 6.02264,1.4434 26.4027,7.75267 38.304,-3.50021 12.4265,-11.74942 31.819,-19.985 47.0448,-17.53881 52.2875,8.40057 154.5458,7.57816 165.4017,5.42977 4.6984,0.78306 16.2232,6.92889 28.6565,8.34863 10.0744,1.15038 20.8101,-2.23013 28.4798,-2.76947 0,0 10.5531,7.84252 23.9127,5.21019 4.9597,-0.97723 2.0968,2.56188 7.4731,3.09322 4.8991,0.48418 8.5022,-5.46559 14.6953,-4.17127 0.8711,0.18206 6.947,4.2751 6.947,4.2751 9.0951,3.57198 17.7819,4.70798 27.1972,7.90223 8.5274,2.89298 16.3317,3.27448 22.7208,4.42461 5.0411,0.90747 9.2623,-2.25243 13.2398,-2.8535 2.0372,-0.30786 5.8994,3.29356 14.0988,3.99214 57.9666,4.93869 250.8896,28.42873 282.6787,31.07783 36.2858,3.02379 99.7858,7.55952 136.0715,7.55952 36.2857,0 65.0119,-3.02382 113.3928,-4.53573 48.381,-1.51191 93.7381,7.55954 145.1429,3.02382 51.4047,-4.53573 498.0835,-9.8865 498.0835,-9.8865 l -85.5263,765.46 -740.6406,224.1408 -1253.36901,-30.2381 -988.71827,26.3273 -215.95379,-455.4272 243.7498,-421.2168 339.96685,-186.01962 z"
         style="fill:url(#linearGradient9308);fill-opacity:1;stroke:none;stroke-width:0.26458332px;stroke-linecap:butt;stroke-linejoin:miter;stroke-opacity:1" />
      <path
         sodipodi:nodetypes="cccccssccsscscccccccccccccccccccssscccccccscccccsccccccccccccscccccscccccscsccccccscscccccccccccccc"
         inkscape:connector-curvature="0"
         id="path8172"
         d="m -10.488839,946.19637 c 74.483633,-4.43684 109.888387,-9.9585 168.612339,-16.07168 l 34.47777,-13.69167 c 0,0 21.24793,-6.68173 23.51972,-7.34991 2.27179,-0.66816 20.17885,-6.94899 24.45516,-7.75081 4.27631,-0.8018 15.50163,-2.40541 18.30796,-3.20723 2.80632,-0.80182 38.35317,-13.36347 41.82768,-14.03165 3.47451,-0.66818 6.68173,0.8018 9.75534,1.06908 3.07359,0.26725 7.61717,-1.20272 9.08717,-1.33636 1.46997,-0.13361 4.40994,2.13818 6.81538,2.13818 2.4054,0 10.69078,-1.73726 12.82893,-1.73726 2.13815,0 9.35442,2.00451 12.42803,2.13815 3.07359,0.13365 27.26148,-2.13815 30.86963,-2.27179 3.60815,-0.13364 3.74176,0.26726 5.47902,0.53454 1.73725,0.26726 5.87994,0.13364 8.81991,-0.80182 2.93994,-0.93543 6.81537,-2.27179 11.35893,-3.20723 4.54358,-0.93543 2.13818,-0.13364 8.01809,-1.33635 5.87994,-1.20269 3.87541,-0.66816 8.81991,-1.60362 4.94449,-0.93543 5.07813,-0.93543 7.75081,-1.73725 2.67269,-0.80179 2.2718,-0.80179 5.47902,-1.87087 3.20723,-1.06907 10.69078,-3.47451 14.96708,-4.27633 4.27633,-0.80179 6.94902,-0.80179 9.88899,-1.73725 2.93997,-0.93544 6.28084,-2.40541 8.55263,-2.93995 2.27179,-0.53456 0.4009,-0.40092 2.53905,-0.53456 2.13815,-0.13361 11.8935,0.93546 14.56618,0.13364 2.67272,-0.80179 12.29442,-2.93997 13.63076,-3.47451 1.33635,-0.53453 4.94448,-1.33633 7.88445,-2.53904 2.93997,-1.20272 14.66334,-7.66194 19.48254,-8.70138 4.81917,-1.03942 9.73288,-1.4174 12.85118,-0.94494 3.1183,0.47247 10.29986,2.07886 13.04017,3.02382 2.74032,0.94493 4.91369,2.17337 7.37053,3.1183 2.45687,0.94493 6.14212,2.26785 8.221,3.1183 2.07886,0.85045 1.03942,1.03944 4.91368,1.51191 3.87427,0.47247 1.32292,-0.28348 6.5201,1.32292 5.19716,1.60639 2.36234,1.60639 7.27604,1.60639 4.91369,0 16.81994,-1.7009 18.80431,-2.64584 1.98438,-0.94493 2.07886,-0.85045 3.30729,-0.94493 1.22841,-0.0945 2.92931,1.13393 3.87424,1.60639 0.94496,0.47247 1.79541,1.32292 3.02382,1.60639 1.22844,0.2835 1.51191,-0.37795 2.64584,0.189 1.13392,0.56697 -0.28348,0.18899 2.55135,0.75596 2.83482,0.56695 2.74031,0.66146 4.25222,0.75594 1.51191,0.0945 3.21281,0.28348 8.03198,0.47247 4.8192,0.18899 13.41816,-0.85045 14.6466,-1.03942 1.2284,-0.18899 0.47246,-0.47249 2.36235,0.0945 1.88987,0.56697 0.37796,0.37798 3.77976,1.13392 3.40178,0.75597 9.16591,1.88989 12.09524,2.07889 2.92931,0.18896 15.30803,0.0945 17.67039,0.47246 2.36233,0.37796 7.654,2.92931 18.04836,4.06324 10.39434,1.13392 17.48139,1.03944 19.93824,0.85045 2.45684,-0.189 5.48065,-0.94494 6.2366,-1.32292 0.75596,-0.37798 1.32291,-0.75594 2.92933,-0.47247 1.60639,0.28348 3.49626,1.03944 4.91368,1.60639 1.4174,0.56698 5.48066,3.4018 12.37872,5.29167 6.89806,1.88989 10.29986,0 12.66219,-0.75594 2.36236,-0.75597 14.4576,-0.85045 20.6942,-1.98438 6.23663,-1.13392 20.03274,-6.5201 22.3951,-6.99256 2.36236,-0.47247 2.36236,-0.66146 3.68528,-0.37799 1.32291,0.2835 2.07885,1.53554 2.85842,2.12612 0.7796,0.5906 2.96376,1.20401 3.76558,1.5381 0.80179,0.33409 1.60361,0.53454 2.27179,1.13591 0.66815,0.60134 1.26952,1.26952 2.47224,1.60361 1.20272,0.33409 7.28308,0.73499 8.88669,1.06908 1.60364,0.33409 2.07135,0.26728 2.47227,0.86862 0.4009,0.60135 3.80857,1.13591 6.6149,1.46998 2.80633,0.33408 11.0917,-0.4009 12.29442,-0.33407 1.20269,0.0668 3.40767,1.00224 4.74403,1.26953 1.33633,0.26725 4.94448,0 5.21174,0 0.26728,0 1.00227,-0.0668 1.9377,0.20044 0.93546,0.26726 1.80409,0.73499 3.34087,1.13589 1.5368,0.40092 19.48053,0.768 23.63827,2.27989 4.15774,1.5119 4.5357,5.29166 9.44941,7.18155 4.91368,1.8899 21.16666,4.91369 25.70236,6.04761 4.53573,1.13395 7.18156,2.64583 16.25299,2.64583 9.07142,0 11.71725,-0.37795 17.00892,1.13396 5.29167,1.51188 4.91368,2.64583 11.33928,2.64583 6.42561,0 1.13395,-3.02382 11.71728,0.37796 10.58333,3.4018 5.66962,2.64583 14.36312,5.29166 8.69339,2.64584 9.07139,3.02382 15.87499,3.77976 6.8035,0.75597 23.0565,2.64583 26.4583,3.4018 3.4018,0.75594 6.8036,0.75594 13.6071,2.64584 6.8036,1.88986 7.5596,3.77975 14.7411,5.29166 7.1816,1.51191 11.3393,3.02382 16.253,3.77976 4.9137,0.75594 7.5595,1.13392 15.497,3.02382 7.9375,1.88986 32.2928,12.0787 33.8296,12.41279 1.5368,0.33409 3.7418,1.13588 6.6817,1.67042 2.94,0.53457 2.8732,0.73501 6.2141,0.93546 3.3408,0.20045 381.8996,-0.2776 381.8996,-0.2776 l 272.1429,1.51188 198.0595,4.53573 498.9286,42.33332 -90.7143,592.6667 -913.1905,190.5 -1823.35711,-66.5239 -66.52382,-474.738 254,-272.1429 38.6019,-34.16867 67.638699,16.63541 z"
         style="fill:url(#linearGradient9316);fill-opacity:1;stroke:none;stroke-width:0.26458332px;stroke-linecap:butt;stroke-linejoin:miter;stroke-opacity:1" />
      <path
         sodipodi:nodetypes="cccccccsccccccccccccccccccccccccccsscccccccccscccccccccccccccccccscccccccscccscccccccccccccccccccccscccsccccccccccccccccccccsccscsccccccccccccccsscccccscccscsccccsccsccccsc"
         inkscape:connector-curvature="0"
         id="path8166"
         d="m 1166.3777,919.54808 -242.79427,86.55392 -690.62446,10.6908 -443.66741,-2.1382 -76.97363,203.1248 6.41447,363.4866 1441.1173,6.4145 1148.1899,-29.9342 -32.0724,-594.4075 -245.8879,-21.38152 -110.9997,-41.874 c -4.3467,-2.64584 -4.6775,-2.36233 -4.6775,-2.36233 l -1.1812,0.89767 -2.0316,-0.89767 -2.9765,-0.189 h -2.4096 l -1.8899,-1.27566 c 0,0 -1.6536,-0.23624 -1.8899,-0.23624 -0.2362,0 -2.3624,-0.61421 -2.3624,-0.61421 0,0 0,0.0945 -1.7481,0.28348 -1.7481,0.18899 -2.5513,0.51972 -4.2522,0.28347 -1.7009,-0.23622 -1.3702,-0.23622 -3.0711,-0.33073 -1.7009,-0.0945 -1.1339,0.18899 -2.5513,-0.28347 -1.4174,-0.47247 -2.2679,0.18899 -2.2679,0.18899 0,0 -2.2206,0.42521 -3.071,0.37798 -0.8505,-0.0472 -1.6064,-0.75596 -2.3151,-0.80322 -0.7087,-0.0472 -0.945,-0.0945 -1.9371,0.14176 -0.9922,0.23622 -0.7088,0.33073 -2.1262,0.37796 -1.4174,0.0473 -0.9449,-0.28347 -2.0788,0.0945 -1.134,0.37796 -0.8032,0.8032 -1.8899,0.85045 -1.0867,0.0472 -0.4725,-0.33073 -1.9372,0.0472 -1.4646,0.37798 -1.1811,1.60642 -2.1261,0.61423 -0.9449,-0.99219 -0.9922,-1.79541 -1.9843,-1.51191 -0.9922,0.28348 0.094,-0.14174 -1.1812,0.51972 -1.2757,0.66146 -1.0394,1.22841 -2.2679,0.5197 -1.2284,-0.70869 -0.6142,-1.03942 -1.6064,-0.8032 -0.9922,0.23625 0.1418,-0.75594 -1.4174,0.61423 -1.5591,1.37015 -0.8032,1.13393 -2.3151,1.79538 -1.5119,0.66146 -2.7403,1.13393 -3.0238,1.27567 -0.2835,0.14173 -0.189,-0.14174 -0.7087,0.47246 -0.5197,0.61421 0.2362,1.60639 -0.756,2.12612 -0.9922,0.51972 0.378,0.0945 -1.7953,0.75596 -2.1734,0.66146 -3.3546,1.32292 -4.205,1.55914 -0.8505,0.23625 -1.0395,0.51972 -1.9844,0.66146 -0.945,0.14173 -1.0394,0.18899 -1.6536,0.18899 -0.6143,0 -1.8427,0 -2.0789,0.0945 -0.2362,0.0945 -0.047,0.51969 -1.0394,0.6142 -0.9922,0.0945 -1.0867,0 -1.9844,0.18899 -0.8977,0.189 -0.189,-0.37798 -1.7482,0.47247 -1.5591,0.85045 -1.8898,0.99219 -2.3623,1.27566 -0.4725,0.28348 -4.5357,1.65365 -4.772,1.84264 -0.2362,0.18899 0,0.14174 -0.9922,0.75594 -0.9921,0.61423 0,0.66146 -2.1261,1.13395 -2.1261,0.47247 -4.7247,2.2206 -7.654,1.84261 -2.9293,-0.37795 -2.8821,0.0945 -5.5279,-1.51188 -2.6458,-1.60642 1.0867,0.28348 -4.0632,-2.22062 -5.1499,-2.5041 -10.5834,-5.00819 -12.0953,-5.19718 -1.5119,-0.18897 -2.9765,-0.14174 -4.6774,-0.23622 -1.7009,-0.0945 -1.5119,0.66145 -2.9293,-0.28348 -1.4175,-0.94496 -1.134,-1.60642 -3.1184,-1.84264 -1.9843,-0.23624 -2.693,-0.2835 -4.2049,-0.18899 -1.5119,0.0945 -0.756,1.4174 -2.7404,1.46466 -1.9843,0.0473 -0.5197,0.85045 -3.2128,-0.14174 -2.693,-0.99219 -0.3779,-0.66146 -3.827,-1.46465 -3.449,-0.8032 -4.7719,-0.99219 -6.3311,-1.27569 -1.5591,-0.28348 -0.3307,0.0945 -2.5986,-0.37796 -2.2678,-0.47247 -1.4174,-0.33073 -4.2994,-0.70871 -2.8821,-0.37799 -0.945,1.37017 -5.1972,-0.85045 -4.2522,-2.2206 -10.7723,-5.6224 -11.481,-5.85862 -0.7087,-0.23625 -3.827,-1.22843 -5.0555,-1.55916 -1.2284,-0.33073 -4.2995,-1.22844 -5.0081,-1.93712 -0.7088,-0.70872 -1.4647,0.33073 -2.7876,0.37795 -1.3229,0.0473 -3.638,-0.14173 -5.2917,0 -1.6536,0.14177 -0.8977,0.51973 -3.449,0.28351 -2.5514,-0.23625 -2.3624,0 -5.5752,-0.8032 -3.2128,-0.80322 -4.7719,-1.27569 -6.2838,-1.60642 -1.5119,-0.33073 -2.3151,-0.75594 -3.7798,-1.22841 -1.4646,-0.47246 -1.7481,-0.61423 -3.1655,-0.66145 -1.4174,-0.0473 -6.1422,-0.99219 -6.1422,-0.99219 0,0 -2.7875,-0.61423 -3.3545,-0.66146 -0.567,-0.0473 -3.6853,0.18899 -3.6853,0.18899 0,0 -3.5435,0.33073 -3.9687,0.42521 -0.4252,0.0945 -0.8032,0.14174 -2.4568,0.51973 -1.6537,0.37798 -2.0789,0.6142 -4.6775,0.6142 -2.5986,0 -6.8981,-0.66146 -8.1738,-1.08667 -1.2756,-0.42524 -7.276,-2.5041 -9.2131,-2.59861 -1.9371,-0.0945 -4.9137,0.33073 -6.9926,0.61423 -2.0788,0.28348 -8.8352,2.2206 -10.1581,2.2206 -1.3229,0 -7.087,0.42524 -8.8352,0.0945 -1.7481,-0.33073 -4.5357,-0.99219 -6.4256,-1.65365 -1.8898,-0.66146 -2.1261,-1.03944 -4.2994,-1.08669 -2.1734,-0.0472 -3.0239,0 -5.9532,0.14173 -2.9293,0.14177 -4.6302,0.33073 -6.5673,0.56698 -1.9371,0.23624 -0.9449,0.0472 -4.3467,0.66146 -3.4018,0.6142 -3.1183,0.47246 -5.5752,0.8977 -2.4568,0.42521 -1.8426,0.56695 -4.7247,0.37796 -2.882,-0.18899 -12.9457,0.47247 -14.4103,0.37798 -1.4647,-0.0945 -5.3862,-0.18899 -6.8508,-1.22843 -1.4647,-1.03942 -4.5358,-3.21278 -6.1894,-3.35452 -1.6537,-0.14174 -1.2757,-0.42524 -2.5513,0.18899 -1.2757,0.6142 -5.528,2.50407 -5.528,2.50407 0,0 -4.5829,1.51191 -5.7168,1.60642 -1.134,0.0945 -4.394,0.66146 -5.9532,0.70868 -1.5591,0.0473 -9.2131,1.22844 -10.6305,1.18118 -1.4174,-0.0472 -8.5045,1.18118 -11.4811,1.13393 -2.9765,-0.0472 -7.1815,-0.0472 -8.032,-0.23622 -0.8504,-0.18899 -1.2756,-0.28348 -1.9371,-0.66146 -0.6614,-0.37798 -0.8504,-0.51972 -1.5591,-0.42524 -0.7087,0.0945 -0.047,0.0473 -1.2757,0.61423 -1.2284,0.56695 -4.4412,1.51191 -4.8192,1.51191 -0.378,0 -0.6142,0.0472 -1.7481,0.0945 -1.134,0.0473 -1.7482,0.33073 -4.1578,0.0945 -2.4096,-0.23622 -1.7954,0.18899 -5.8586,-0.47247 -4.0633,-0.66146 -6.9926,-1.32292 -8.1265,-1.65365 -1.1339,-0.33073 -6.6618,-1.5119 -7.1343,-1.74812 -0.4725,-0.23625 -0.4252,-0.56698 -1.6536,-0.66146 -1.2285,-0.0945 -0.8033,-0.23625 -1.8899,0.0473 -1.0867,0.28348 -0.047,-0.0473 -2.1734,0.5197 -2.1261,0.56697 -8.9769,1.55916 -10.1109,1.60641 -1.1339,0.0472 -1.1811,0.14174 -2.3151,0.23622 -1.1339,0.0945 -1.1811,-0.0472 -2.3151,0.51972 -1.1339,0.56698 0.095,-0.0945 -1.7008,0.89771 -1.7955,0.99219 -1.9372,1.32292 -2.8349,1.60639 -0.8977,0.28348 -0.9922,0.56698 -1.6536,0.6142 -0.6615,0.0473 -3.827,-0.51972 -4.205,-0.66145 -0.378,-0.14174 0.094,-0.0472 -0.8032,-0.33073 -0.8977,-0.28348 -1.6064,-0.189 -2.0316,0 -0.4253,0.18899 -1.2284,0.8977 -1.6064,1.13392 -0.378,0.23625 -4.0633,2.17337 -4.7247,2.45687 -0.6615,0.28347 -1.6537,0 -1.6537,0 0,0 -0.378,-0.18899 -0.4725,0.37796 -0.094,0.56697 0.1418,0.94496 -0.047,1.22843 -0.189,0.28348 -0.2362,0.6142 -0.756,0.85045 -0.5197,0.23622 -0.8504,0.47247 -1.7481,1.03942 -0.8977,0.56697 -4.205,2.78759 -4.4412,3.11832 -0.2362,0.33073 -0.4725,0.66146 -0.8505,0.75594 -0.3779,0.0945 -0.5197,0.28348 -1.4646,0 -0.945,-0.28347 -0.567,-0.42521 -1.6537,-0.42521 -1.0866,0 -0.7087,-0.23624 -2.504,0.14174 -1.7954,0.37796 -4.6775,0.70869 -5.3862,0.89768 -0.7087,0.18899 -1.4647,0.14173 -2.9293,0.70871 -1.4647,0.56698 -1.7482,0.66146 -3.4018,0.89771 -1.6537,0.23622 -1.4647,0.23622 -3.449,0.42521 -1.9844,0.18899 -2.8349,0.0945 -5.0082,0 -2.1734,-0.0945 -2.5514,0.0472 -4.4885,0 -1.9371,-0.0473 -2.5986,-0.18899 -4.0632,0.0945 -1.4647,0.2835 -5.7642,1.46468 -6.4729,1.41743 -0.7087,-0.0473 -0.7087,0.0472 -1.4174,-0.37799 -0.7087,-0.42521 -0.189,-0.66146 -1.1339,-0.51972 -0.945,0.14174 -0.3308,-0.33073 -1.2757,0.47247 -0.9449,0.80322 -1.0867,0.56697 -2.1734,1.37017 -1.0866,0.80319 -0.8977,0.18899 -1.1811,1.13392 -0.2835,0.94496 -3.1164,-0.34279 -3.5173,-0.4096 -0.4009,-0.0668 -1.1693,-0.7684 -1.7039,-0.86863 -0.5345,-0.10022 -3.8086,-0.10022 -4.1092,-0.10022 -0.3007,0 -1.1025,0.13362 -2.2384,0.10022 -1.1359,-0.0334 -3.5079,0.10023 -4.2095,0.13362 -0.7016,0.0334 -2.038,0.20047 -2.7395,0.16706 -0.7016,-0.0334 -0.9689,0.20045 -1.9043,-0.13364 -0.9355,-0.33409 -1.9043,-0.36748 -2.2718,-0.56796 -0.3675,-0.20045 -1.3698,-0.7684 -1.8709,-1.00224 -0.5011,-0.23387 -0.067,-0.23387 -1.1693,-0.23387 -1.1025,0 -2.7061,0.23387 -8.586,-1.10249 -5.88,-1.33635 -18.9094,-4.91109 -20.513,-5.27857 -1.6036,-0.3675 -12.4948,-3.27406 -12.4948,-3.27406 0,0 -21.1143,-6.04697 -23.0186,-6.24742 -1.9043,-0.20045 -7.1161,2.3386 -7.9847,2.53908 -0.8686,0.20044 -2.6393,0.30067 -3.4077,0.60134 -0.7684,0.30067 -0.4677,1.36975 -1.7038,2.00451 -1.2361,0.63479 -13.9314,5.91336 -15.1007,6.48129 -1.1693,0.56795 -6.1472,2.17156 -7.3834,2.37201 -1.2361,0.20048 -1.7372,0.33409 -2.5056,0.13364 -0.7684,-0.20044 -2.8063,-0.73498 -2.94,-0.73498 -0.1336,0 -1.9043,-0.36751 -3.1738,-0.10023 -1.2695,0.26726 -2.372,1.03566 -3.675,1.23611 -1.3029,0.20048 -2.4722,0.13364 -3.9422,-0.50112 -1.47,-0.63476 -1.8375,-1.13588 -3.8086,-1.26952 -1.9711,-0.13365 -5.4122,0.70157 -6.6149,0.96885 -1.2027,0.26725 -1.637,0.23386 -4.6772,0.70157 -3.0402,0.46773 -2.5391,0.46773 -4.6772,0.73501 -1.7781,0.22224 -19.1952,4.39072 -22.451,5.40248 -30.7578,9.55817 -33.6625,10.90895 -33.6625,10.90895"
         style="fill:#1a1407;fill-opacity:1;stroke:none;stroke-width:0.26458332px;stroke-linecap:butt;stroke-linejoin:miter;stroke-opacity:1" />
      <path
         sodipodi:nodetypes="cscscccccccccccsccccccccccscccsssccscccssscccccccccccscccccscsccssccccsscccccscccsccccccsscccsscscccccssssccccssssccsscc"
         inkscape:connector-curvature="0"
         id="path8162"
         d="m -28.697897,950.5099 c 0,0 37.4177343,0.26725 48.375784,-4.81087 10.95805,-5.07812 8.819894,-6.1472 12.962573,-7.21627 4.142676,-1.06908 7.082641,0.13364 11.492589,0.13364 4.409946,0 52.919369,-4.54358 57.997491,-6.28084 5.07812,-1.73725 6.01356,-3.8754 8.01808,-4.14266 2.00452,-0.26728 4.81085,2.93995 9.35444,2.80633 4.54358,-0.13364 2.00452,-2.13818 5.74629,-2.80633 3.74177,-0.66818 2.80633,4.54356 10.82442,0.13362 8.01808,-4.40995 11.62622,-6.1472 12.6953,-6.5481 1.06908,-0.40089 2.53906,-1.20271 2.53906,-1.20271 0,0 1.20271,-0.93544 2.67269,-0.26726 1.46999,0.66815 7.21628,6.1472 11.75987,7.08263 4.54358,0.93544 10.32328,1.70384 11.89349,1.53681 1.57021,-0.16706 4.30972,-1.67045 4.94449,-1.83748 0.63476,-0.16706 0.8018,-0.60137 1.77066,-0.60137 0.96885,0 0.86862,0.40092 1.60361,0.73501 0.73499,0.33406 1.77066,0.83521 2.40543,1.00224 0.63476,0.16706 27.18255,3.89049 29.35591,3.98497 2.17337,0.0945 4.25224,-1.7009 6.04762,-1.4174 1.79539,0.28348 0.37798,-0.56697 3.11831,0.94494 2.74032,1.5119 5.57515,2.26784 8.03199,2.64583 2.45685,0.37798 33.05907,3.42995 35.99904,3.83087 2.93997,0.4009 8.28535,0.4009 11.35896,0.8018 3.07358,0.40092 4.40994,0.66818 7.88445,1.60361 3.47451,0.93546 5.21176,1.47 8.81988,2.00454 3.60815,0.53453 6.1472,-0.13364 11.62625,1.87089 5.47901,2.00451 6.01355,2.13815 13.09618,3.07359 7.08266,0.93543 12.16078,1.47 19.24341,2.00453 7.08266,0.53454 4.27633,-0.13364 10.95807,0.53454 6.68173,0.66815 33.94323,4.14266 37.95225,4.14266 4.00905,0 13.22986,0.26728 19.91159,0.66818 6.68173,0.4009 26.19243,0.93543 28.73147,0.4009 2.53908,-0.53454 6.68174,-0.93544 10.69079,-0.53454 4.00904,0.40092 7.48355,1.06907 13.22985,1.33636 5.74627,0.26725 13.22983,0.93543 15.90252,0.93543 2.67271,0 2.00453,0.13364 7.88445,-0.13361 5.87994,-0.26729 14.96711,0 17.90708,0.26725 2.93994,0.26728 -7.08266,-0.66818 11.35893,1.60362 18.44162,2.27175 26.05878,3.87545 33.4087,3.87545 7.34991,0 9.75534,-0.6682 18.84251,0.5345 9.08714,1.2027 7.61717,1.3363 16.5707,2.4054 8.95352,1.0691 54.09686,5.1542 61.65641,3.6423 7.55951,-1.5119 11.90625,-9.44938 12.5677,-11.43376 0.66146,-1.98437 0.189,-4.72469 0.94494,-6.80357 0.75594,-2.07886 -0.47247,-2.8348 0.94493,-3.1183 1.41743,-0.28348 3.1183,-1.03942 4.25225,-2.26785 1.13393,-1.22843 0.28348,-1.32292 1.70087,-1.60639 1.41743,-0.2835 0.0945,-1.03944 2.55136,-0.0945 2.45684,0.94496 1.13392,0.37798 2.9293,0.94496 1.79539,0.56695 2.07889,1.13392 3.77976,0.85042 1.7009,-0.28347 5.19718,-2.07886 7.27604,-2.55132 2.07889,-0.47247 16.25299,-5.57514 17.19792,-5.76413 0.94496,-0.189 0.75597,-0.75597 1.60642,-0.75597 0.85042,0 1.51188,0.47246 3.30729,0.66146 1.79538,0.18899 -0.0945,0.47246 3.87424,0.56697 3.96875,0.0945 11.52827,-0.94493 12.56771,-0.85045 1.03944,0.0945 1.51191,-0.47246 2.74034,0.75594 1.22841,1.22844 -0.56698,0.56698 3.1183,2.36236 3.68525,1.79538 4.44122,2.26785 6.04761,2.92931 1.60639,0.66146 2.45684,1.03944 3.87426,1.7009 1.4174,0.66146 1.70088,0.85045 2.74032,1.51191 1.03944,0.66146 1.03944,0.85045 1.98438,1.98437 0.94493,1.13393 2.64583,3.77976 4.91368,4.53573 2.26787,0.75594 -0.56695,1.13392 3.96875,0.94493 4.53572,-0.18899 6.04763,-0.56697 9.44941,-0.18899 3.4018,0.37798 10.39434,2.83482 11.71725,3.40177 1.32292,0.56698 24.56847,7.5595 24.56847,7.5595 l 16.63094,4.3467 30.42709,4.7248 c 0,0 6.86249,4.7062 22.36414,5.7753 15.50162,1.0691 46.50489,3.2072 54.52298,1.6036 8.01809,-1.6036 50.24667,-17.6398 50.24667,-17.6398 l 48.64309,-18.70883 31.5378,-8.55261 c 0,0 36.8832,-6.94901 39.5558,-7.48355 2.6728,-0.53454 7.4836,-1.60361 13.8981,-2.67269 6.4144,-1.0691 3.7417,-1.0691 14.4325,-2.67271 10.6908,-1.60362 18.1084,-4.64429 20.1873,-5.21124 2.0789,-0.56697 5.4807,-0.94493 9.4494,-2.07888 3.9688,-1.13393 3.2128,-1.51188 6.9926,-2.26785 3.7797,-0.75594 4.5357,-0.75594 7.5595,-0.75594 3.0238,0 2.4568,-0.56698 6.8036,1.32291 4.3467,1.88987 4.5357,2.07886 6.6146,2.45685 2.0788,0.37798 7.6068,1.45602 10.2795,1.72331 2.6727,0.26725 5.0781,0 8.5526,0.53453 3.4745,0.53454 0.2673,0.26726 5.8799,1.60362 5.6127,1.33635 4.5436,2.13815 8.8199,1.33635 4.2763,-0.80182 6.4145,-1.60361 8.2854,-2.40543 1.8709,-0.80182 1.3363,-1.60361 5.0781,-1.60361 3.7418,0 3.4745,-0.26728 9.3544,2.40543 5.88,2.67269 5.88,3.20723 9.889,4.54356 4.009,1.33636 4.2763,1.0691 9.889,1.33636 5.6126,0.26728 12.4186,0.16428 14.3084,0.16428 1.8899,0 1.8899,-0.37799 5.6697,1.13392 3.7798,1.51191 3.4018,1.88987 8.1265,3.96875 4.7247,2.07886 1.3229,3.02379 8.6934,3.21278 7.3706,0.18899 11.9063,1.32292 15.6861,2.26788 3.7797,0.94493 8.6934,2.45684 15.497,5.29167 6.8036,2.83479 -5.6697,-1.32292 20.4107,6.61458 26.0803,7.9375 26.6473,9.07142 34.0178,10.96129 7.3706,1.88987 22.8676,9.44937 66.7128,18.52087 53.1997,4.39418 63.9078,5.02757 104.705,7.03441 40.7158,2.00284 56.8346,5.13588 138.2686,11.61119 179.4578,14.2698 106.2764,20.6639 141.0502,20.6639 34.7739,0 263.0715,-4.5357 281.2143,-4.5357 18.1429,0 66.5238,25.7024 71.0596,37.7976 4.5357,12.0952 12.0952,25.7024 12.0952,25.7024 0,0 -6.0476,247.9524 -18.1429,263.0714 -12.0952,15.119 -63.5,81.6428 -93.7381,114.9047 -30.2381,33.262 -217.7142,72.5715 -414.2619,72.5715 -196.5476,0 -444.5,-6.0476 -1124.85707,-42.3334 -680.35715,-36.2857 -768.04762,99.7858 -780.14286,-96.7618 -12.09524,-196.5477 6.04762,-208.6429 45.35714,-290.2858 39.30953,-81.6428 52.58893,-107.1645 60.07247,-117.8552 7.48355,-10.6908 12.2944,-14.9672 20.84703,-23.51978 8.55262,-8.5526 9.6217,-14.96708 29.399642,-9.62168 19.777942,5.34538 29.399647,6.94899 40.624966,4.81084 11.22532,-2.13815 14.165285,-1.06907 14.165285,-1.06907 z"
         style="fill:url(#linearGradient9324);fill-opacity:1;stroke:none;stroke-width:0.26458332px;stroke-linecap:butt;stroke-linejoin:miter;stroke-opacity:1;opacity:0.459" />
      <path
         sodipodi:nodetypes="ccscscscscccccccccccccc"
         inkscape:connector-curvature="0"
         id="path8160"
         d="m 836.72084,963.8734 c 27.52876,-12.29443 24.3215,-11.75989 27.52876,-12.29443 3.20722,-0.53453 7.21627,3.47451 21.64881,3.47451 14.43257,0 15.7689,-5.07812 22.45064,-5.87994 6.68173,-0.80179 21.64884,2.93997 22.45064,2.93997 0.80181,0 -4.54356,0.80182 8.01809,-0.26725 12.56167,-1.06911 64.14472,-13.89804 72.96462,-14.43258 8.8198,-0.53453 14.3657,0.20045 18.9093,4.54359 4.5436,4.34313 12.7054,3.23815 15.4328,7.77375 7.2104,11.99048 19.8441,20.83518 19.8441,20.83518 9.0582,3.5188 16.9098,3.6333 16.9098,3.6333 l 26.4584,2.2679 30.2245,11.1249 68.0288,5.9108 762.6208,19.0133 -14.9671,262.9932 -2024.833934,-32.0723 27.79603,-230.9209 617.618384,-20.01144 154.71535,-9.68556 40.16708,1.4989 41.54399,-4.6527 z"
         style="fill:#210305;fill-opacity:1;stroke:none;stroke-width:0.26458332px;stroke-linecap:butt;stroke-linejoin:miter;stroke-opacity:1" />
      <path
         sodipodi:nodetypes="ccccc"
         inkscape:connector-curvature="0"
         id="path8158"
         d="m -18.849768,999.47779 c 871.033968,0 2000.606568,6.72591 2157.005968,6.72591 -15.201,26.894 -178.6361,397.5953 -178.6361,397.5953 l -2061.18258,-85.5262 z"
         style="fill:#000000;fill-opacity:0;stroke:none;stroke-width:0.26458332px;stroke-linecap:butt;stroke-linejoin:miter;stroke-opacity:0" />
      <rect
         y="-82.288383"
         x="-63.142426"
         height="1241.801"
         width="2076.6841"
         id="rect9250"
         style="opacity:1;fill:#000000;fill-opacity:0;stroke:none;stroke-width:0.26458332;stroke-opacity:0" />
    </g>
  </g>
</svg>
