<?xml version="1.0" encoding="UTF-8" standalone="no"?>
<!-- Generator: Adobe Illustrator 18.0.0, SVG Export Plug-In . SVG Version: 6.00 Build 0)  -->

<svg
   xmlns:dc="http://purl.org/dc/elements/1.1/"
   xmlns:cc="http://creativecommons.org/ns#"
   xmlns:rdf="http://www.w3.org/1999/02/22-rdf-syntax-ns#"
   xmlns:svg="http://www.w3.org/2000/svg"
   xmlns="http://www.w3.org/2000/svg"
   xmlns:sodipodi="http://sodipodi.sourceforge.net/DTD/sodipodi-0.dtd"
   xmlns:inkscape="http://www.inkscape.org/namespaces/inkscape"
   version="1.1"
   id="Capa_1"
   x="0px"
   y="0px"
   viewBox="0 0 375.107 375.107"
   style="enable-background:new 0 0 375.107 375.107;"
   xml:space="preserve"
   sodipodi:docname="desert.svg"
   inkscape:version="0.92.4 (5da689c313, 2019-01-14)"><metadata
   id="metadata59"><rdf:RDF><cc:Work
       rdf:about=""><dc:format>image/svg+xml</dc:format><dc:type
         rdf:resource="http://purl.org/dc/dcmitype/StillImage" /><dc:title></dc:title></cc:Work></rdf:RDF></metadata><defs
   id="defs57" /><sodipodi:namedview
   pagecolor="#ffffff"
   bordercolor="#666666"
   borderopacity="1"
   objecttolerance="10"
   gridtolerance="10"
   guidetolerance="10"
   inkscape:pageopacity="0"
   inkscape:pageshadow="2"
   inkscape:window-width="1920"
   inkscape:window-height="1017"
   id="namedview55"
   showgrid="false"
   inkscape:zoom="1.7795157"
   inkscape:cx="120.69626"
   inkscape:cy="241.19651"
   inkscape:window-x="-8"
   inkscape:window-y="-8"
   inkscape:window-maximized="1"
   inkscape:current-layer="g22" />

<g
   id="g24">
</g>
<g
   id="g26">
</g>
<g
   id="g28">
</g>
<g
   id="g30">
</g>
<g
   id="g32">
</g>
<g
   id="g34">
</g>
<g
   id="g36">
</g>
<g
   id="g38">
</g>
<g
   id="g40">
</g>
<g
   id="g42">
</g>
<g
   id="g44">
</g>
<g
   id="g46">
</g>
<g
   id="g48">
</g>
<g
   id="g50">
</g>
<g
   id="g52">
</g>
<g
   inkscape:groupmode="layer"
   id="layer1"
   inkscape:label="opacity"
   style="opacity:0" /><g
   inkscape:groupmode="layer"
   id="layer2"
   inkscape:label="layer"><g
     transform="translate(-6.9147547e-7,9.5361157)"
     id="g22"
     style="opacity:1"><path
       inkscape:connector-curvature="0"
       d="m 375.107,329.045 -7.82,-19.272 c -0.558,-1.376 -13.859,-34.071 -30.445,-67.36 -30.659,-61.532 -46.545,-74.14 -60.965,-74.14 -14.421,0 -30.308,12.608 -60.968,74.139 -3.075,6.172 -6.036,12.322 -8.825,18.257 -5.199,-11.919 -11.158,-25.173 -17.496,-38.506 -36.673,-77.16 -54.565,-92.661 -71.547,-92.661 -16.982,0 -34.875,15.501 -71.549,92.661 C 25.7,263.803 9.575,304.698 8.898,306.418 L 0,329.04 h 176.645 l -0.002,0.006 h 198.464 z"
       id="path2"
       style="fill:#ffcc00" /><path
       inkscape:connector-curvature="0"
       d="m 221.992,59.935 c -0.415,-7.721 -7.684,-13.873 -7.684,-13.873 0,0 -7.269,6.152 -7.684,13.873 2.48,-0.527 5.049,-0.81 7.684,-0.81 2.635,0 5.204,0.283 7.684,0.81 z"
       id="path4"
       style="fill:#ffcc00" /><path
       inkscape:connector-curvature="0"
       d="m 206.625,132.188 c 0.414,7.72 7.684,13.873 7.684,13.873 0,0 7.27,-6.153 7.684,-13.873 -2.48,0.527 -5.049,0.81 -7.684,0.81 -2.635,0 -5.204,-0.283 -7.684,-0.81 z"
       id="path6"
       style="fill:#ffcc00" /><path
       inkscape:connector-curvature="0"
       d="m 250.436,103.743 c 7.719,-0.414 13.872,-7.681 13.872,-7.681 0,0 -6.153,-7.268 -13.873,-7.682 0.527,2.479 0.81,5.048 0.81,7.682 0,2.634 -0.282,5.202 -0.809,7.681 z"
       id="path8"
       style="fill:#ffd42a" /><path
       inkscape:connector-curvature="0"
       d="m 178.181,103.743 c -0.526,-2.479 -0.809,-5.047 -0.809,-7.681 0,-2.634 0.282,-5.203 0.809,-7.682 -7.721,0.416 -13.873,7.682 -13.873,7.682 0,0 6.153,7.266 13.873,7.681 z"
       id="path10"
       style="fill:#ffcc00" /><path
       inkscape:connector-curvature="0"
       d="m 234.391,127.038 c 5.75,5.187 15.271,4.379 15.271,4.379 0,0 0.808,-9.523 -4.377,-15.274 -2.829,4.349 -6.546,8.066 -10.894,10.895 z"
       id="path12"
       style="fill:#ffd42a" /><path
       inkscape:connector-curvature="0"
       d="m 194.225,65.087 c -5.748,-5.187 -15.27,-4.38 -15.27,-4.38 0,0 -0.809,9.52 4.378,15.273 2.828,-4.349 6.544,-8.065 10.892,-10.893 z"
       id="path14"
       style="fill:#ffcc00" /><path
       inkscape:connector-curvature="0"
       d="m 178.957,131.417 c 0,0 9.52,0.805 15.27,-4.379 -4.349,-2.829 -8.064,-6.545 -10.895,-10.894 -5.184,5.75 -4.375,15.273 -4.375,15.273 z"
       id="path16"
       style="fill:#ffcc00" /><path
       inkscape:connector-curvature="0"
       d="m 245.284,75.979 c 5.186,-5.751 4.378,-15.273 4.378,-15.273 0,0 -9.52,-0.808 -15.271,4.379 4.348,2.83 8.064,6.546 10.893,10.894 z"
       id="path18"
       style="fill:#ffcc00" /><path
       inkscape:connector-curvature="0"
       d="m 214.309,122.445 c 14.548,0 26.384,-11.835 26.384,-26.383 0,-14.548 -11.836,-26.384 -26.384,-26.384 -14.548,0 -26.384,11.836 -26.384,26.384 0,14.547 11.836,26.383 26.384,26.383 z"
       id="path20"
       style="fill:#ffcc00" /></g></g></svg>