<?xml version="1.0" encoding="UTF-8" standalone="no"?>
<!-- Created with Inkscape (http://www.inkscape.org/) -->

<svg
   xmlns:dc="http://purl.org/dc/elements/1.1/"
   xmlns:cc="http://creativecommons.org/ns#"
   xmlns:rdf="http://www.w3.org/1999/02/22-rdf-syntax-ns#"
   xmlns:svg="http://www.w3.org/2000/svg"
   xmlns="http://www.w3.org/2000/svg"
   xmlns:sodipodi="http://sodipodi.sourceforge.net/DTD/sodipodi-0.dtd"
   xmlns:inkscape="http://www.inkscape.org/namespaces/inkscape"
   version="1.1"
   id="svg1091"
   width="3840"
   height="200"
   viewBox="0 0 3840 200"
   sodipodi:docname="footer.svg"
   inkscape:version="0.92.4 (5da689c313, 2019-01-14)">
  <metadata
     id="metadata1097">
    <rdf:RDF>
      <cc:Work
         rdf:about="">
        <dc:format>image/svg+xml</dc:format>
        <dc:type
           rdf:resource="http://purl.org/dc/dcmitype/StillImage" />
        <dc:title />
      </cc:Work>
    </rdf:RDF>
  </metadata>
  <defs
     id="defs1095" />
  <sodipodi:namedview
     pagecolor="#ffffff"
     bordercolor="#666666"
     borderopacity="1"
     objecttolerance="10"
     gridtolerance="10"
     guidetolerance="10"
     inkscape:pageopacity="0"
     inkscape:pageshadow="2"
     inkscape:window-width="1920"
     inkscape:window-height="1017"
     id="namedview1093"
     showgrid="false"
     inkscape:zoom="0.54152743"
     inkscape:cx="1730.5028"
     inkscape:cy="-81.821006"
     inkscape:window-x="-8"
     inkscape:window-y="-8"
     inkscape:window-maximized="1"
     inkscape:current-layer="layer1"
     inkscape:pagecheckerboard="true" />
  <g
     inkscape:groupmode="layer"
     id="layer1"
     inkscape:label="Layer 1"
     style="display:inline;opacity:1"
     transform="translate(0,-50)">
    <g
       id="g1192"
       transform="matrix(1.8397712,0,0,1,587.01046,0)"
       style="fill:#000000;fill-opacity:1">
      <path
         inkscape:connector-curvature="0"
         id="path1103"
         d="m 8.1404901,164.95224 c 34.9918489,-1.19111 36.4703789,-1.51595 37.3328549,-1.8408 0.862474,-0.32484 8.50154,-2.92361 8.50154,-2.92361 0,0 5.544482,0.10829 6.283746,0.21657 0.739265,0.10827 6.899803,2.3822 6.899803,2.3822 0,0 4.435586,0.21656 7.762276,0.32484 3.32669,0.10828 12.813916,-1.51594 12.813916,-1.51594 0,0 3.326689,-0.21657 8.50154,-0.10829 5.174854,0.10829 15.647764,-0.43313 22.424354,-1.08282 6.77659,-0.64969 14.16924,-1.73251 18.85125,-1.84079 4.682,-0.10828 8.74796,-0.10828 8.74796,-0.10828 0,0 6.65338,-0.10828 8.50154,-0.32484 1.84815,-0.21657 3.20348,-0.86626 6.77658,-1.40767 3.57312,-0.54141 3.20349,-1.94907 9.24082,-2.59876 6.03731,-0.64969 6.65337,-0.97454 13.67638,-1.08282 7.02301,-0.10828 10.10328,0.10827 13.79961,-0.43313 3.69632,-0.54141 5.6677,-0.97454 6.53016,-0.21656 0.86249,0.75797 1.35533,1.08282 2.2178,1.29938 0.86247,0.21656 2.71063,0.54141 3.94275,0.64969 1.2321,0.10829 1.60174,0.21657 4.80521,-0.43313 3.20348,-0.64969 4.68201,-0.86625 7.14623,-1.1911 2.46421,-0.32484 5.05164,-0.86625 6.77659,-1.08282 1.72494,-0.21656 7.51585,-1.08281 9.36401,-1.1911 1.84817,-0.10827 2.341,0 5.05164,-0.64969 2.71063,-0.64969 2.95705,-0.75797 4.06596,-1.29938 1.10889,-0.54141 2.46422,-0.86626 3.32668,-0.86626 0.86248,0 1.84817,0.6497 3.69633,0.75798 1.84816,0.10827 3.08027,0.10827 5.54449,0 2.4642,-0.10828 2.341,-0.21657 5.7909,-0.43313 3.44989,-0.21656 3.57311,-0.21656 6.53017,-0.86625 2.95705,-0.6497 1.97137,-0.6497 5.66768,-0.86626 3.69633,-0.21656 2.83385,-0.21656 5.79091,-0.21656 2.95706,0 1.97137,0.10827 4.55879,0.21656 2.58743,0.10829 9.36403,-0.64969 10.59614,-0.97454 1.23211,-0.32484 1.72494,-0.10827 3.44989,-0.75797 1.72496,-0.64969 5.91412,0.43313 9.36403,0.43313 3.44989,0 3.44989,-0.21657 7.14621,-0.21657 3.69633,0 4.18916,2.38221 4.18916,2.38221 0,0 1.23211,1.94907 2.95707,1.94907 1.72495,0 4.18917,0.43313 7.14621,-0.21656 2.95706,-0.6497 2.2178,-1.08282 5.42128,-1.94908 3.20348,-0.86625 4.43559,-0.43313 7.63906,0.43313 3.20349,0.86625 3.94275,1.29938 9.85687,0.21656 5.91411,-1.08282 6.89979,-1.08282 11.82822,-1.94907 4.92843,-0.86626 7.39265,-2.3822 10.10329,-3.24846 2.71063,-0.86625 3.94274,-1.08282 8.87118,-1.51594 4.92843,-0.43313 5.66769,-0.43313 8.62473,-1.29939 2.95706,-0.86625 0.73928,-0.86625 5.42129,-0.86625 4.682,0 6.16053,0 7.88547,-0.64969 1.72496,-0.64969 -0.73926,-0.64969 4.18917,-2.16564 4.92844,-1.51595 4.18917,-1.08282 7.88549,-2.16564 3.69633,-1.08282 0.98569,-1.29938 4.92843,-1.29938 3.94275,0 1.97137,-0.43313 6.65339,-0.21657 4.68201,0.21657 7.39264,0.6497 11.82822,0.6497 4.43558,0 6.65338,0 9.1176,-0.21657 2.46421,-0.21656 3.4499,-0.21656 6.65337,-0.86625 3.20349,-0.64969 3.94275,-0.64969 6.6534,-1.29939 2.71062,-0.64969 2.71062,-0.86625 5.42127,-0.86625 2.71063,0 2.71063,0 6.16052,0 3.44991,0 4.92843,0.43313 7.88549,-0.21656 2.95707,-0.6497 5.91412,-1.73251 8.13192,-2.59877 2.21778,-0.86625 1.72494,-0.86625 5.42127,-2.3822 3.69632,-1.51595 4.68201,-2.81533 10.84253,-3.46502 6.16055,-0.64969 3.44991,-0.64969 8.62476,-0.64969 5.17486,0 4.682,0 9.61044,0 4.92843,0 6.16053,0.21656 8.37833,-0.21657 2.2178,-0.43312 0.24641,-0.64969 5.42127,-1.29938 5.17485,-0.64969 5.91412,-0.21656 7.63906,0.21656 1.72496,0.43313 0.73928,0.86626 4.682,2.38221 3.94275,1.51594 5.17486,2.16563 7.88549,2.3822 2.71065,0.21656 -1.72494,-1.29939 6.40698,0.43313 8.13189,1.73251 10.84253,2.3822 11.82822,2.59876 0.9857,0.21656 -0.24643,0.43313 1.97137,0.21656 2.21779,-0.21656 3.94275,-0.43312 3.94275,-0.43312 0,0 0.98568,-0.64969 3.69631,-0.86626 2.71064,-0.21656 3.69633,-0.43313 4.92844,0.21657 1.23211,0.64969 0.24642,0.64969 2.71063,1.94907 2.46422,1.29938 0.73927,0.64969 3.94274,2.3822 3.20349,1.73251 2.46423,1.29938 5.42127,2.3822 2.95706,1.08282 3.20349,1.08282 4.4356,1.73251 1.23211,0.64969 0.73925,0.43313 2.2178,1.08282 1.47851,0.64969 0.73925,0.64969 4.18916,1.29938 3.44991,0.6497 1.47852,0.43313 6.89979,1.51595 5.42128,1.08282 4.43558,0.43313 6.8998,1.73251 2.46421,1.29938 2.71063,2.16564 4.4356,2.3822 1.72494,0.21657 1.72494,0.43313 2.71063,0.64969 0.98569,0.21657 1.97137,0.21657 1.97137,0.21657 0,0 0.73926,0 1.72495,-0.86626 0.9857,-0.86625 0.24642,-0.64969 1.23212,-1.08282 0.98567,-0.43312 1.2321,-0.64969 2.46421,-0.64969 1.23209,0 1.97137,0 1.97137,0 0,0 0.24642,0 2.21779,-0.21656 1.97137,-0.21657 2.95706,0.21656 4.43558,-0.64969 1.47853,-0.86626 0.49284,-0.64969 3.44991,-1.73251 2.95706,-1.08282 2.71063,-0.86626 4.43558,-1.73251 1.72494,-0.86626 0.98569,-0.43313 2.95707,-1.29939 1.97136,-0.86625 1.47852,-0.21656 3.94272,-1.51594 2.46422,-1.29939 3.44991,-1.51595 4.92844,-2.3822 1.47854,-0.86626 1.23211,-0.6497 3.20348,-1.94908 1.97137,-1.29938 1.72495,-1.51594 3.44991,-1.94907 1.72494,-0.43313 1.72494,-1.08282 3.69631,-0.64969 1.97137,0.43312 3.94276,1.29938 6.16054,1.51594 2.2178,0.21657 3.94274,0.21657 5.17485,0.43313 1.23211,0.21656 -1.23211,-0.64969 2.46422,0.86626 3.69632,1.51594 3.4499,1.51594 5.42126,1.73251 1.97139,0.21656 4.4356,0.64969 6.40697,0.43312 1.97137,-0.21656 2.71063,-0.64969 6.40695,-1.51594 3.69633,-0.86626 2.46422,-0.64969 5.42127,-1.51595 2.95707,-0.86625 4.18916,-1.08282 6.16055,-1.51595 1.97137,-0.43312 3.20346,-0.86625 5.91411,-1.08281 2.71064,-0.21657 1.97136,-0.43313 4.43558,-0.21657 2.46423,0.21657 2.46423,-0.21656 4.92843,0.43313 2.46423,0.64969 5.42127,2.16564 6.89981,2.59876 1.47852,0.43313 0.98568,0.86626 4.43559,0.86626 3.44989,0 4.18916,-0.21656 7.39263,0 3.20349,0.21656 4.92843,0.21656 8.37834,0 3.44989,-0.21656 7.63907,0 10.34971,-0.21656 2.71062,-0.21657 4.68201,-0.86626 6.65337,0 1.97138,0.86625 3.20349,1.29938 5.17485,1.51594 1.97138,0.21657 1.47853,0.21657 4.68201,-0.21656 3.20348,-0.43313 3.20348,-0.43313 6.8998,-0.86626 3.69633,-0.43312 4.43558,-0.43312 8.37834,-0.43312 3.94274,0 -0.98569,-1.08282 5.42127,0.43312 6.40694,1.51595 2.95705,0.86626 8.37832,2.81533 5.42127,1.94908 3.44991,1.29939 9.85686,3.24846 6.40697,1.94907 6.65339,2.81533 10.10327,3.24846 3.44991,0.43312 3.20349,1.08281 6.6534,1.73251 3.44989,0.64969 3.20347,1.08281 6.16052,1.29938 2.95707,0.21656 2.71065,0.21656 7.39265,0.64969 4.68201,0.43313 5.91412,0.43313 6.8998,0.43313 0.98569,0 0.24643,-0.43313 4.4356,-1.29939 4.18915,-0.86625 11.08895,-4.7644 16.2638,-6.93004 5.17485,-2.16563 5.17485,-2.59876 8.37834,-3.89814 3.20347,-1.29939 2.95706,-1.73251 5.9141,-2.38221 2.95707,-0.64969 0.73928,-0.64969 9.36404,-0.86625 8.62473,-0.21656 13.06032,0 15.52454,0 2.46422,0 -3.94274,0.21656 4.18917,0 8.1319,-0.21656 9.85686,-0.21656 12.32108,0 2.4642,0.21656 3.20346,-0.43313 8.13191,-0.43313 4.92843,0 3.6963,0 9.61043,0 5.91411,0 5.66768,0.43313 10.34969,0.64969 4.68202,0.21657 4.92843,0.43313 8.62476,0.43313 3.69633,0 3.20348,0.43313 7.63907,0 4.43552,-0.43313 8.13192,-0.43313 8.13192,-0.43313 0,0 9.364,-0.64969 13.5532,-0.86625 4.1892,-0.21657 5.1748,-0.43313 10.1033,-0.21657 4.9284,0.21657 4.1891,1.08282 8.3783,1.51595 4.1892,0.43313 -5.9141,0.64969 5.6677,0.86626 11.5818,0.21656 6.8998,-0.86626 12.0746,-0.86626 5.1749,0 7.8855,0.43313 11.8283,1.08282 3.9427,0.64969 2.2178,0.21656 8.8711,1.94907 6.6534,1.73251 12.5675,4.54784 14.2925,5.84723 1.7249,1.29938 1.9714,1.94907 4.4356,2.3822 2.4642,0.43312 1.4785,0.21656 4.682,0.43312 3.2035,0.21657 1.2321,0 7.8855,0.21657 6.6533,0.21656 8.3783,0 12.0746,0.64969 3.6963,0.64969 3.4499,0.43313 7.1462,1.51595 3.6964,1.08282 2.7107,0.86625 6.6534,1.51594 3.9428,0.64969 4.4356,0.86626 7.6391,1.51595 3.2035,0.64969 0.9857,0.21656 6.6534,0.86625 5.6677,0.6497 5.9141,0.6497 11.0889,1.51595 5.1749,0.86626 2.7107,0.64969 7.1463,1.73251 4.4356,1.08282 1.9713,1.94907 6.8998,1.51595 4.9284,-0.43313 2.957,0 8.8711,-1.51595 5.9142,-1.51595 4.1892,-0.86625 8.8712,-2.3822 4.682,-1.51595 1.9714,-1.73251 8.1319,-1.94907 6.1605,-0.21657 4.4356,-0.86626 10.3497,-0.21657 5.9141,0.64969 7.1462,1.08282 11.3354,1.08282 4.1892,0 4.4356,-0.64969 8.1319,0.21656 3.6963,0.86626 6.6534,2.16564 6.6534,2.16564 l 2.4642,0.43313 7.1462,-3.68158 c 0,0 4.4356,0.64969 6.8998,0.64969 2.4643,0 -0.2464,-0.21657 6.1606,0 6.4069,0.21656 5.1748,0 8.6247,0.64969 3.4499,0.64969 2.2178,0.43313 7.3927,0.43313 5.1748,0 2.957,-0.43313 7.1462,0 4.1892,0.43312 2.4642,0.43312 5.1748,0.86625 2.7107,0.43313 8.6248,-0.21656 10.1033,-0.21656 1.4785,0 4.4356,1.29938 4.4356,1.29938 0,0 -0.4928,0.43313 5.4213,0.43313 5.9141,0 9.364,-0.21657 12.5675,0 3.2035,0.21656 -0.7393,-0.86626 1.7249,0 2.4642,0.86625 2.7107,0.86625 4.4357,0.86625 1.7249,0 0.2463,-0.43313 3.9427,0 3.6962,0.43313 3.4498,0.64969 5.6677,1.29938 2.2177,0.6497 1.7249,1.08282 4.9284,1.29939 3.2035,0.21656 3.2035,0.43313 4.682,0.43313 1.4785,0 -0.9857,0.21656 5.4212,0.21656 6.407,0 11.0891,-1.08282 12.8139,-1.08282 1.725,0 11.8283,3.89815 13.3068,4.33128 1.4785,0.43312 3.6963,1.08281 6.407,1.29938 2.7107,0.21656 2.4642,0.21656 6.6534,0.64969 4.1892,0.43313 5.914,0.86625 8.1319,0.64969 2.2178,-0.21656 1.9713,-0.21656 5.4212,-1.08282 3.45,-0.86625 6.1605,-1.94907 7.1462,-1.94907 0.9858,0 -0.4927,-0.64969 6.407,-0.43313 6.8999,0.21656 8.3784,0 10.8426,0.21656 2.4642,0.21657 -4.9285,0.21657 3.9427,0.21657 8.8712,0 23.0902,0.19672 23.0902,0.19672 l 9.0608,260.93985 -1470.6387271,-24.50139 2.7879409,-226.6379 z"
         style="fill:#000000;fill-opacity:1;stroke:none;stroke-width:1.40065467px;stroke-linecap:butt;stroke-linejoin:miter;stroke-opacity:0" />
    </g>
  </g>
  <g
     inkscape:groupmode="layer"
     id="layer2"
     inkscape:label="Layer 2"
     style="display:inline"
     transform="translate(0,-50)" />
</svg>
