<?xml version="1.0" encoding="UTF-8" standalone="no"?>
<svg
   xmlns:dc="http://purl.org/dc/elements/1.1/"
   xmlns:cc="http://creativecommons.org/ns#"
   xmlns:rdf="http://www.w3.org/1999/02/22-rdf-syntax-ns#"
   xmlns:svg="http://www.w3.org/2000/svg"
   xmlns="http://www.w3.org/2000/svg"
   xmlns:sodipodi="http://sodipodi.sourceforge.net/DTD/sodipodi-0.dtd"
   xmlns:inkscape="http://www.inkscape.org/namespaces/inkscape"
   viewBox="0 0 64 64"
   width="512"
   height="512"
   version="1.1"
   id="svg7"
   sodipodi:docname="tourbike.svg"
   inkscape:version="0.92.4 (5da689c313, 2019-01-14)">
  <metadata
     id="metadata13">
    <rdf:RDF>
      <cc:Work
         rdf:about="">
        <dc:format>image/svg+xml</dc:format>
        <dc:type
           rdf:resource="http://purl.org/dc/dcmitype/StillImage" />
        <dc:title></dc:title>
      </cc:Work>
    </rdf:RDF>
  </metadata>
  <defs
     id="defs11" />
  <sodipodi:namedview
     pagecolor="#ffffff"
     bordercolor="#666666"
     borderopacity="1"
     objecttolerance="10"
     gridtolerance="10"
     guidetolerance="10"
     inkscape:pageopacity="0"
     inkscape:pageshadow="2"
     inkscape:window-width="1920"
     inkscape:window-height="1017"
     id="namedview9"
     showgrid="false"
     inkscape:zoom="0.921875"
     inkscape:cx="216.20692"
     inkscape:cy="266.64289"
     inkscape:window-x="-8"
     inkscape:window-y="-8"
     inkscape:window-maximized="1"
     inkscape:current-layer="layer2" />
  <g
     inkscape:groupmode="layer"
     id="layer1"
     inkscape:label="opacity"
     style="opacity:0" />
  <g
     inkscape:groupmode="layer"
     id="layer2"
     inkscape:label="layer">
    <g
       transform="translate(-0.00399198,0.50947107)"
       id="outline">
      <path
         inkscape:connector-curvature="0"
         d="m 50,32 a 11.945,11.945 0 0 0 -3.12,0.426 L 44.309,23 h 4.883 a 1.808,1.808 0 0 1 0.438,3.562 l -1.873,0.468 0.486,1.94 1.873,-0.469 a 3.807,3.807 0 0 0 -0.924,-7.5 H 43 a 1,1 0 0 0 -0.965,1.263 L 43.1,26.175 26.627,29.836 25.3,24.968 29.447,22.9 A 1,1 0 0 0 30,22 v -1 a 1,1 0 0 0 -1,-1 h -8.764 a 2.236,2.236 0 0 0 -1,4.235 v 0 l 2.423,1.211 a 2.637,2.637 0 0 0 1.771,0.265 l 1.389,5.094 -3.439,3.726 C 21.258,34.436 21.126,34.353 21,34.263 V 30 A 1,1 0 0 0 20,29 H 6 a 1,1 0 0 0 -1,1 v 1 H 3 v 2 h 2 v 3.081 a 11.992,11.992 0 1 0 20.735,10.395 l 0.317,0.04 a 3.969,3.969 0 0 0 4.784,3.393 L 32.1,52.447 A 1,1 0 0 0 33,53 h 4 v -2 h -3.382 l -1,-2 a 3.941,3.941 0 0 0 0.755,-5.13 l 11.275,-12.032 0.346,1.27 A 11.975,11.975 0 1 0 50,32 Z M 23.448,23.658 a 1,1 0 0 1 -0.895,0 l -2.422,-1.21 A 0.236,0.236 0 0 1 20.236,22 h 6.528 z m -3.713,22.07 A 6.007,6.007 0 0 1 8.672,46.8 4.937,4.937 0 0 0 10,47 h 6 a 4.964,4.964 0 0 0 3.356,-1.319 z M 7,31 h 12 v 11 a 3,3 0 0 1 -3,3 H 10 A 3,3 0 0 1 7,42 Z m 7,23 A 9.991,9.991 0 0 1 5,39.652 V 42 a 4.948,4.948 0 0 0 1.086,3.073 7.986,7.986 0 0 0 15.657,0.905 l 2,0.25 A 9.99,9.99 0 0 1 14,54 Z M 23.984,44.242 22,44 a 7.911,7.911 0 0 0 -1,-3.833 v -2.276 l 0.482,-0.522 A 10,10 0 0 1 24,44 c 0,0.082 -0.014,0.162 -0.016,0.242 z m 2.3,0.288 -0.32,-0.04 c 0.007,-0.164 0.032,-0.324 0.032,-0.49 a 11.994,11.994 0 0 0 -3.16,-8.1 l 2.6,-2.815 2.58,9.462 a 4,4 0 0 0 -1.728,1.983 z m 5.38,2.569 -0.764,-1.546 -1.79,0.894 0.771,1.54 a 1.994,1.994 0 1 1 1.792,-0.888 z m 2.648,-7.165 -1.651,-1.634 0.941,-0.962 1.724,1.519 z M 36.694,37.4 35,35.906 l 1.8,-1.843 1.523,1.591 z m 3,-3.2 -2.164,-2.261 A 1,1 0 0 0 36.813,31.63 h -0.006 a 1,1 0 0 0 -0.714,0.3 l -5.563,5.687 a 1,1 0 0 0 0.012,1.411 l 2.4,2.372 -1.032,1.107 A 3.952,3.952 0 0 0 30,42 c -0.019,0 -0.036,0.005 -0.055,0.006 l -2.791,-10.238 16.476,-3.661 0.4,1.466 z m 7.2,4.676 2.148,6.445 1.9,-0.632 -2.179,-6.559 a 6.036,6.036 0 1 1 -1.86,0.741 z M 50,54 A 9.992,9.992 0 0 1 45.62,35.024 l 0.637,1.91 a 8.21,8.21 0 1 0 1.873,-0.7 l -0.634,-1.9 A 10,10 0 1 1 50,54 Z"
         id="path2"
         style="fill:#b3b3b3" />
      <rect
         x="10"
         y="35"
         width="6"
         height="2"
         id="rect4"
         style="fill:#b3b3b3" />
    </g>
    <ellipse
       style="opacity:1;fill:#b3b3b3;fill-opacity:1;stroke-width:0.125"
       id="path4564"
       cx="6.0643396"
       cy="48.419682"
       rx="1.3662741"
       ry="2.3969722" />
    <ellipse
       style="opacity:1;fill:#b3b3b3;fill-opacity:1;stroke-width:0.125"
       id="path4566"
       cx="4.6740956"
       cy="42.499161"
       rx="1.0306981"
       ry="2.852397" />
    <circle
       style="opacity:1;fill:#b3b3b3;fill-opacity:1;stroke-width:0.125"
       id="path4568"
       cx="5.0096717"
       cy="45.854919"
       r="1.7497897" />
    <ellipse
       style="opacity:1;fill:#b3b3b3;fill-opacity:1;stroke-width:0.125"
       id="path4570"
       cx="5.3212781"
       cy="47.508831"
       rx="1.2464255"
       ry="1.6778805" />
    <ellipse
       style="opacity:1;fill:#b3b3b3;fill-opacity:1;stroke-width:0.125"
       id="path4572"
       cx="7.4785533"
       cy="50.744743"
       rx="2.1093354"
       ry="2.852397" />
    <ellipse
       style="opacity:1;fill:#b3b3b3;fill-opacity:1;stroke-width:0.125"
       id="path4574"
       cx="9.635828"
       cy="52.134987"
       rx="2.0613961"
       ry="1.8456686" />
    <ellipse
       style="opacity:1;fill:#b3b3b3;fill-opacity:1;stroke-width:0.125"
       id="path4576"
       cx="12.392346"
       cy="53.165688"
       rx="2.5168207"
       ry="1.7737594" />
    <ellipse
       style="opacity:1;fill:#b3b3b3;fill-opacity:1;stroke-width:0.125"
       id="path4578"
       cx="15.556349"
       cy="53.189655"
       rx="3.2838519"
       ry="1.5580319" />
    <ellipse
       style="opacity:1;fill:#b3b3b3;fill-opacity:1;stroke-width:0.125"
       id="path4580"
       cx="19.463413"
       cy="51.415897"
       rx="2.8763666"
       ry="1.893608" />
    <ellipse
       style="opacity:1;fill:#b3b3b3;fill-opacity:1;stroke-width:0.125"
       id="path4582"
       cx="21.57275"
       cy="49.234653"
       rx="2.7325482"
       ry="1.9655172" />
    <ellipse
       style="opacity:1;fill:#b3b3b3;fill-opacity:1;stroke-width:0.125"
       id="path4584"
       cx="22.891085"
       cy="46.502102"
       rx="2.0853658"
       ry="2.0134566" />
    <ellipse
       style="opacity:1;fill:#b3b3b3;fill-opacity:1;stroke-width:0.125"
       id="path4586"
       cx="22.891085"
       cy="43.961311"
       rx="1.7977291"
       ry="2.157275" />
    <ellipse
       style="opacity:1;fill:#b3b3b3;fill-opacity:1;stroke-width:0.125"
       id="path4588"
       cx="22.315811"
       cy="41.108917"
       rx="1.6539108"
       ry="2.2291842" />
    <ellipse
       style="opacity:1;fill:#b3b3b3;fill-opacity:1;stroke-width:0.125"
       id="path4590"
       cx="21.380991"
       cy="39.119431"
       rx="1.2943649"
       ry="1.1505467" />
    <ellipse
       style="opacity:1;fill:#b3b3b3;fill-opacity:1;stroke-width:0.125"
       id="path4592"
       cx="21.47687"
       cy="38.20858"
       rx="0.86290997"
       ry="0.91084939" />
    <ellipse
       style="opacity:1;fill:#b3b3b3;fill-opacity:1;stroke-width:0.125"
       id="path4594"
       cx="41.371738"
       cy="47.532803"
       rx="1.6299411"
       ry="1.9894869" />
    <ellipse
       style="opacity:1;fill:#b3b3b3;fill-opacity:1;stroke-width:0.125"
       id="path4596"
       cx="42.330528"
       cy="49.905804"
       rx="1.4861227"
       ry="1.3902439" />
    <ellipse
       style="opacity:1;fill:#b3b3b3;fill-opacity:1;stroke-width:0.125"
       id="path4600"
       cx="44.607651"
       cy="51.631622"
       rx="2.6126997"
       ry="2.492851" />
    <ellipse
       style="opacity:1;fill:#b3b3b3;fill-opacity:1;stroke-width:0.125"
       id="path4602"
       cx="47.531956"
       cy="52.710262"
       rx="2.4209418"
       ry="2.325063" />
    <ellipse
       style="opacity:1;fill:#b3b3b3;fill-opacity:1;stroke-width:0.125"
       id="path4604"
       cx="50.86375"
       cy="53.285534"
       rx="3.2598822"
       ry="1.7497897" />
    <ellipse
       style="opacity:1;fill:#b3b3b3;fill-opacity:1;stroke-width:0.125"
       id="path4608"
       cx="54.195541"
       cy="52.494534"
       rx="2.5168207"
       ry="1.2943649" />
    <ellipse
       style="opacity:1;fill:#b3b3b3;fill-opacity:1;stroke-width:0.125"
       id="path4610"
       cx="56.544575"
       cy="51.22414"
       rx="2.2291842"
       ry="1.2703953" />
    <ellipse
       style="opacity:1;fill:#b3b3b3;fill-opacity:1;stroke-width:0.125"
       id="path4612"
       cx="58.534061"
       cy="47.149284"
       rx="2.2531538"
       ry="4.2905803" />
    <ellipse
       style="opacity:1;fill:#b3b3b3;fill-opacity:1;stroke-width:0.125"
       id="path4614"
       cx="56.232967"
       cy="49.785954"
       rx="1.0067283"
       ry="1.0306981" />
    <ellipse
       style="opacity:1;fill:#b3b3b3;fill-opacity:1;stroke-width:0.125"
       id="path4616"
       cx="50.380077"
       cy="35.788601"
       rx="4.1270695"
       ry="1.6548719" />
    <ellipse
       style="opacity:1;fill:#b3b3b3;fill-opacity:1;stroke-width:0.125"
       id="path4618"
       cx="54.722874"
       cy="37.058033"
       rx="1.7018502"
       ry="1.5340621" />
    <ellipse
       style="opacity:1;fill:#b3b3b3;fill-opacity:1;stroke-width:0.125"
       id="path4620"
       cx="56.688393"
       cy="38.903702"
       rx="1.6059713"
       ry="1.6539108" />
    <ellipse
       style="opacity:1;fill:#b3b3b3;fill-opacity:1;stroke-width:0.125"
       id="path4622"
       cx="57.335575"
       cy="39.16737"
       rx="1.8696383"
       ry="3.4995794" />
    <ellipse
       style="opacity:1;fill:#b3b3b3;fill-opacity:1;stroke-width:0.125"
       id="path4624"
       cx="58.821697"
       cy="42.139614"
       rx="1.2943649"
       ry="2.5407906" />
    <ellipse
       style="opacity:1;fill:#b3b3b3;fill-opacity:1;stroke-width:0.125"
       id="path4626"
       cx="59.900333"
       cy="43.625736"
       rx="0.88687968"
       ry="0.91084939" />
    <ellipse
       style="opacity:1;fill:#b3b3b3;fill-opacity:1;stroke-width:0.125"
       id="path4628"
       cx="44.367954"
       cy="37.633305"
       rx="2.0853658"
       ry="2.5887299" />
    <ellipse
       style="opacity:1;fill:#b3b3b3;fill-opacity:1;stroke-width:0.125"
       id="path4630"
       cx="42.498318"
       cy="39.910431"
       rx="1.8456686"
       ry="3.187973" />
    <ellipse
       style="opacity:1;fill:#b3b3b3;fill-opacity:1;stroke-width:0.125"
       id="path4632"
       cx="41.060131"
       cy="43.769554"
       rx="1.7018502"
       ry="3.7872159" />
  </g>
</svg>
